<?xml version="1.0" encoding="UTF-8"?>
<!-- Generator: visioncortex VTracer 0.6.4 -->
<svg version="1.1" xmlns="http://www.w3.org/2000/svg" width="500" height="500">
<path d="M0 0 C165 0 330 0 500 0 C500 165 500 330 500 500 C335 500 170 500 0 500 C0 335 0 170 0 0 Z M261 145 C260.195625 145.825 259.39125 146.65 258.5625 147.5 C256.04936462 149.9518394 254.30399584 150.96160131 251 152 C251 152.66 251 153.32 251 154 C249.87851562 154.25523437 249.87851562 154.25523437 248.734375 154.515625 C247.74953125 154.75796875 246.7646875 155.0003125 245.75 155.25 C244.77546875 155.48203125 243.8009375 155.7140625 242.796875 155.953125 C239.60788929 157.1467677 238.31421886 158.54226369 236 161 C230.40031764 165.82020658 224.20623281 166.27337123 217.0625 167.375 C206.59154934 169.14282284 197.60663604 171.51855381 188 176 C186.15045538 176.74081223 184.29666537 177.47117452 182.4375 178.1875 C178.85045649 179.61872437 175.41700616 181.2015757 172 183 C172 183.66 172 184.32 172 185 C169.6568787 184.74438677 167.32156597 184.40729228 165 184 C164.67 183.34 164.34 182.68 164 182 C155.74059391 180.85941535 151.08934859 184.62634554 144.5 189.25 C142.51308209 190.61326793 140.52354753 191.97273104 138.53125 193.328125 C137.58894531 193.97072266 136.64664063 194.61332031 135.67578125 195.27539062 C133.31839436 196.7947867 130.993682 198.0851846 128.46875 199.296875 C125.43890018 200.78450397 124.2507063 201.72354537 122 204 C119.3125 205.1875 119.3125 205.1875 117 206 C117 206.66 117 207.32 117 208 C116.38125 208.28875 115.7625 208.5775 115.125 208.875 C112.86674235 209.93720042 112.86674235 209.93720042 111 212 C110.74994614 215.04182893 110.74994614 215.04182893 111 218 C111.995561 219.22296487 111.995561 219.22296487 113.95996094 219.06787109 C120.96593142 218.59764445 125.47887371 216.50558492 131.25 212.625 C132.77472554 211.63598884 134.30074043 210.6489622 135.828125 209.6640625 C136.53775391 209.20161133 137.24738281 208.73916016 137.97851562 208.26269531 C140.57664848 206.63980363 143.22726312 205.29806472 146 204 C145.39414063 204.63164062 144.78828125 205.26328125 144.1640625 205.9140625 C127.31555257 223.36092913 127.31555257 223.36092913 119 245 C117.824375 245.12375 116.64875 245.2475 115.4375 245.375 C114.62925781 245.47039062 113.82101563 245.56578125 112.98828125 245.6640625 C110.71813906 245.91926803 108.44368279 246.13643556 106.16796875 246.3359375 C104.82022888 246.47313941 103.47257233 246.61116217 102.125 246.75 C100.84882812 246.86859375 99.57265625 246.9871875 98.2578125 247.109375 C94.91488942 247.68978722 94.91488942 247.68978722 93.22265625 250.12890625 C91.80732282 253.45245279 90.50881192 256.77819066 89.3125 260.1875 C88.87550781 261.41855469 88.43851563 262.64960938 87.98828125 263.91796875 C86.89821835 266.77797965 86.89821835 266.77797965 87 269 C86.01 269.495 86.01 269.495 85 270 C84.06068389 272.18148605 84.06068389 272.18148605 83.2734375 274.83984375 C82.9640625 275.82017578 82.6546875 276.80050781 82.3359375 277.81054688 C82.01882812 278.84244141 81.70171875 279.87433594 81.375 280.9375 C81.05015625 281.96552734 80.7253125 282.99355469 80.390625 284.05273438 C78.6824445 288.9371197 78.6824445 288.9371197 78 294 C77.34 294.33 76.68 294.66 76 295 C76.33 295.66 76.66 296.32 77 297 C76.34 297.33 75.68 297.66 75 298 C74.09656316 299.88263881 74.09656316 299.88263881 73.375 302.0625 C73.11460938 302.79597656 72.85421875 303.52945313 72.5859375 304.28515625 C72.39257812 304.85105469 72.19921875 305.41695312 72 306 C75.76499581 308.5099972 77.54293606 308.61476744 82 308 C85.8451603 304.06062444 87.88481298 300.51317827 89.8125 295.3125 C90.30895933 294.00045285 90.80778447 292.68929919 91.30859375 291.37890625 C91.57397949 290.68039551 91.83936523 289.98188477 92.11279297 289.26220703 C94.09522719 284.20738163 96.29179541 279.2363749 98.46020508 274.2590332 C98.79044678 273.487771 99.12068848 272.71650879 99.4609375 271.921875 C99.75790527 271.23706055 100.05487305 270.55224609 100.36083984 269.84667969 C101.16353812 267.85319479 101.16353812 267.85319479 101 265 C105.29 265 109.58 265 114 265 C113.67 271.6 113.34 278.2 113 285 C113.66 285 114.32 285 115 285 C115.0825 286.155 115.165 287.31 115.25 288.5 C116.02054797 294.53595909 118.15104953 299.28311742 122.625 303.4375 C126.37567057 305.90504642 128.46683637 306.43588112 133 306 C136.27310553 304.09643013 136.27310553 304.09643013 139 302 C139.33 302 139.66 302 140 302 C140.226875 302.5775 140.45375 303.155 140.6875 303.75 C142.73481478 307.25968249 145.20859335 309.40840374 149.10546875 310.6953125 C151.05717038 311.18582866 153.02797751 311.59891068 155 312 C155.05994141 312.8353125 155.05994141 312.8353125 155.12109375 313.6875 C155.9931611 320.06112802 158.35899524 323.18106582 163.34375 327.15625 C189.01165653 344.97279688 226.55694033 344.66789638 256.18457031 339.62841797 C256.83780273 339.50225098 257.49103516 339.37608398 258.1640625 339.24609375 C265.38990499 337.86861833 269.31375102 337.8162672 275.66796875 341.68359375 C279.29697833 343.73213015 282.9209134 344.27629109 287 345 C286.7834375 345.76957031 286.566875 346.53914062 286.34375 347.33203125 C282.76182897 362.1074555 279.53550459 387.28118209 286.625 401.1875 C288.98352733 403.2945356 288.98352733 403.2945356 292.5625 403.5 C295.83252501 403.26303444 295.83252501 403.26303444 297.6472168 401.95654297 C299.72172327 398.95616489 299.78070739 395.73537333 300.08203125 392.1953125 C300.15903763 391.40528839 300.23604401 390.61526428 300.31538391 389.80130005 C300.56154838 387.2021305 300.78392255 384.60183609 301 382 C301.07458435 381.1174353 301.1491687 380.23487061 301.22601318 379.32556152 C301.68639923 373.78967258 302.1004539 368.25142919 302.48754883 362.70996094 C302.68979675 359.84243613 302.90433959 356.97598365 303.11914062 354.109375 C303.25074582 352.25786536 303.38163194 350.40630444 303.51171875 348.5546875 C303.57622726 347.71187225 303.64073578 346.86905701 303.7071991 346.0007019 C304.37656657 336.56389374 304.37656657 336.56389374 301 328 C301.53254395 327.77973145 302.06508789 327.55946289 302.61376953 327.33251953 C312.62026262 323.14430583 322.04549592 318.95152045 330.59619141 312.18798828 C333.72786358 309.73433738 335.97769698 308.15053529 340 308 C342.6812597 308.55292299 345.19948768 309.16484851 347.8125 309.9375 C348.50537109 310.13279297 349.19824219 310.32808594 349.91210938 310.52929688 C351.61089961 311.00964446 353.30586595 311.50348021 355 312 C355.08040527 312.648479 355.16081055 313.29695801 355.24365234 313.96508789 C356.03113868 320.30935191 356.82538265 326.65273617 357.62402344 332.99560547 C357.93454123 335.47692489 358.23868171 337.95884736 358.5390625 340.44140625 C359.61727162 355.75022258 359.61727162 355.75022258 366 369 C369.16237842 370.24830727 370.54537542 370.16531803 373.75 369 C376.36240191 367.071879 376.36240191 367.071879 376.8125 363.3125 C376.9053125 361.6728125 376.9053125 361.6728125 377 360 C376.34 360 375.68 360 375 360 C374.97812622 358.84890747 374.97812622 358.84890747 374.95581055 357.67456055 C374.65625795 343.41987917 374.15212691 329.24831606 372.625 315.0625 C372.51115967 313.95156982 372.39731934 312.84063965 372.2800293 311.69604492 C371.61553097 305.95671217 370.81848717 301.08297194 368 296 C364.26802315 293.62611963 364.26802315 293.62611963 360 293 C359.67 292.34 359.34 291.68 359 291 C356.69034152 289.94647157 354.3570226 288.94280904 352 288 C352.34933594 287.26394531 352.69867188 286.52789062 353.05859375 285.76953125 C353.51363281 284.79371094 353.96867187 283.81789063 354.4375 282.8125 C355.11619141 281.36810547 355.11619141 281.36810547 355.80859375 279.89453125 C356.90381422 277.23368414 357.54954796 274.83215245 358 272 C365.77415955 271.62179764 372.49153317 272.32656011 379.9921875 274.44140625 C386.54263124 275.65791723 391.26863165 273.07335101 396.9375 270.1875 C404.82498165 266.31352179 412.46051626 264.00113192 421 262 C424.77922049 261.17573243 424.77922049 261.17573243 428 260 C429.23577017 257.16786836 429.23577017 257.16786836 428.5 254.875 C426.61801611 252.52252014 425.14498469 252.38600849 422.22900391 252.04052734 C417.55906007 251.95561927 413.00534359 252.99578473 408.4375 253.875 C407.42236328 254.06191406 406.40722656 254.24882812 405.36132812 254.44140625 C403.41966678 254.79904733 401.47869905 255.16048259 399.53857422 255.52636719 C396.69839348 256.05627204 393.85257921 256.54163684 391 257 C391 257.66 391 258.32 391 259 C386.25067765 258.03254545 382.35153772 256.77540499 378.0625 254.5 C372.00648081 251.34155307 365.88772681 249.55563053 359 250 C364 245 364 245 366.4375 242.625 C367.283125 241.75875 368.12875 240.8925 369 240 C369.49757813 239.51015625 369.99515625 239.0203125 370.5078125 238.515625 C377.81131622 230.80841002 379.60046193 221.32805917 380 211 C380.73283203 210.87923096 381.46566406 210.75846191 382.22070312 210.6340332 C384.9536121 210.01058234 386.997478 209.15558444 389.46875 207.85546875 C390.69658203 207.21061523 390.69658203 207.21061523 391.94921875 206.55273438 C392.79097656 206.10220703 393.63273437 205.65167969 394.5 205.1875 C395.34175781 204.74857422 396.18351562 204.30964844 397.05078125 203.85742188 C404.15809507 200.09110518 411.31857788 196.04426637 414 188 C414.40872999 183.35478718 414.40872999 183.35478718 412.9375 179.0625 C409.82412541 177.35516555 407.48070825 177.57991452 404 178 C399.44350174 180.8995898 396.90508688 184.52169142 394.125 189.0625 C391.89012371 192.15188781 390.29124368 193.19765227 387 195 C385.92131011 195.85496162 384.85917193 196.73112689 383.8125 197.625 C381 200 381 200 379 201 C378.73445313 200.28972656 378.46890625 199.57945312 378.1953125 198.84765625 C377.84210938 197.92855469 377.48890625 197.00945312 377.125 196.0625 C376.77695312 195.14597656 376.42890625 194.22945312 376.0703125 193.28515625 C375.2180914 190.85058944 375.2180914 190.85058944 373 190 C372.31636776 188.67528524 371.65218799 187.34047494 371 186 C364.09562397 176.23725255 354.08340073 170.87077553 343 167 C344 164 344 164 346.9140625 162.46484375 C348.14636399 161.9445091 349.38363675 161.4358296 350.625 160.9375 C351.83414062 160.43089844 353.04328125 159.92429688 354.2890625 159.40234375 C358 158 358 158 361.8359375 157.00390625 C365.2658971 156.27859698 365.2658971 156.27859698 367 153 C366.85928697 149.6228874 366.74113725 147.70963478 364.25390625 145.328125 C361.60658491 143.76817828 360.10955293 143.65610006 357.0625 143.75 C356.18980469 143.77578125 355.31710937 143.8015625 354.41796875 143.828125 C351.87741986 144.00871329 349.46336021 144.34310394 347 145 C347 145.66 347 146.32 347 147 C346.42121094 147.27199219 345.84242188 147.54398438 345.24609375 147.82421875 C338.46971032 151.37150816 332.23714373 156.6442844 328 163 C325.97216797 163.32470703 325.97216797 163.32470703 323.4921875 163.2578125 C322.58726562 163.24363281 321.68234375 163.22945312 320.75 163.21484375 C319.326875 163.17037109 319.326875 163.17037109 317.875 163.125 C306.15552904 162.66583396 306.15552904 162.66583396 294.875 165.4375 C294.21628906 165.70304687 293.55757812 165.96859375 292.87890625 166.2421875 C292.25886719 166.49226563 291.63882813 166.74234375 291 167 C289 167.66666667 287 168.33333333 285 169 C284.23429688 169.37640625 283.46859375 169.7528125 282.6796875 170.140625 C279.31961891 171.21819802 277.66293292 170.70291825 274.3125 169.6875 C268.85852332 168.1601162 263.64314786 167.36206037 258 167 C257.5 164.5 257.5 164.5 258 161 C260.39206888 158.0270001 263.17108214 155.55015588 266 153 C269.04435168 150.11873859 270.66401939 148.00794182 272 144 C266.17468057 142.73627713 266.17468057 142.73627713 261 145 Z " fill="#000000" transform="translate(0,0)"/>
<path d="M0 0 C0 0.66 0 1.32 0 2 C-1.51980469 2.39832031 -1.51980469 2.39832031 -3.0703125 2.8046875 C-4.42190177 3.16135689 -5.77346278 3.51813343 -7.125 3.875 C-7.79015625 4.04902344 -8.4553125 4.22304687 -9.140625 4.40234375 C-13.14797664 5.4631133 -17.07952899 6.64432311 -21 8 C-15.56062282 1.37814952 -8.2379794 -0.59912577 0 0 Z " fill="#000000" transform="translate(364,153)"/>
<path d="M0 0 C17.69705549 0.68460563 30.56249564 8.8319749 43 21 C43.7115625 21.66386719 44.423125 22.32773438 45.15625 23.01171875 C49.66437995 27.56319611 52.41768336 32.39295296 55 38.1875 C55.30317139 38.86498291 55.60634277 39.54246582 55.91870117 40.24047852 C57.61800765 44.30833375 58.32835502 47.60141094 58 52 C55.3547992 48.75150778 52.89034795 45.43874617 50.5 42 C37.56747081 24.2475983 20.45066723 9.39526765 0 1 C0 0.67 0 0.34 0 0 Z " fill="#000000" transform="translate(291,175)"/>
<path d="M0 0 C3.4375 0.8125 3.4375 0.8125 7 2 C7.33 2.99 7.66 3.98 8 5 C5.03 4.01 2.06 3.02 -1 2 C-0.67 1.34 -0.34 0.68 0 0 Z " fill="#000000" transform="translate(341,176)"/>
<path d="M0 0 C4.39530281 0.48836698 6.0219 1.82976452 9 5 C9.62132812 5.22945312 10.24265625 5.45890625 10.8828125 5.6953125 C14.07179802 7.6604807 15.24713233 10.6644585 16.8125 13.9375 C17.13669922 14.57107422 17.46089844 15.20464844 17.79492188 15.85742188 C20.12948754 20.61153739 20.12948754 20.61153739 19 24 C17.66666667 22.66666667 16.33333333 21.33333333 15 20 C13.700625 18.824375 13.700625 18.824375 12.375 17.625 C9.77728703 14.75384356 9.20677682 12.62033047 8 9 C5.48383083 6.16124504 3.15583815 4.1038921 0 2 C0 1.34 0 0.68 0 0 Z " fill="#000000" transform="translate(350,180)"/>
<path d="M0 0 C-1.39798828 0.70962891 -1.39798828 0.70962891 -2.82421875 1.43359375 C-15.40404382 7.91622416 -26.62417139 15.28708727 -36.85546875 25.12890625 C-39 27 -39 27 -41 27 C-41 27.66 -41 28.32 -41 29 C-42.41900699 30.14871995 -43.84022533 31.2948342 -45.2734375 32.42578125 C-47.85524014 34.77977777 -49.73049257 37.55697979 -51.703125 40.42578125 C-52.13109375 40.94527344 -52.5590625 41.46476562 -53 42 C-53.66 42 -54.32 42 -55 42 C-55.34611328 42.79664063 -55.34611328 42.79664063 -55.69921875 43.609375 C-57.40900268 46.75168061 -59.59465932 49.45874065 -61.8125 52.25 C-64.77030315 55.98553541 -67.43847152 59.59368483 -69.6875 63.8125 C-70.450625 64.864375 -71.21375 65.91625 -72 67 C-75.8125 67.5 -75.8125 67.5 -79 67 C-78.01 66.505 -78.01 66.505 -77 66 C-76.72671875 65.42894531 -76.4534375 64.85789062 -76.171875 64.26953125 C-74.62586146 61.27541836 -72.54738868 59.1484906 -70.25 56.6875 C-69.36054688 55.72199219 -68.47109375 54.75648438 -67.5546875 53.76171875 C-66.71164063 52.85035156 -65.86859375 51.93898437 -65 51 C-60.53168416 46.67318624 -60.53168416 46.67318624 -59 41 C-57.02 40.505 -57.02 40.505 -55 40 C-55 38.68 -55 37.36 -55 36 C-56.32 36.66 -57.64 37.32 -59 38 C-59 35 -59 35 -57.72583008 33.37792969 C-53.57477402 29.37412296 -49.32049832 25.68520449 -44.6875 22.25 C-44.00308838 21.74194824 -43.31867676 21.23389648 -42.61352539 20.71044922 C-9.78592201 -3.261974 -9.78592201 -3.261974 0 0 Z " fill="#000000" transform="translate(246,194)"/>
<path d="M0 0 C5.55127295 -0.28226812 8.34768139 -0.31601433 13 3 C14.90544156 4.79727239 16.68010182 6.5705014 18.4375 8.5 C18.91977051 9.02464844 19.40204102 9.54929688 19.89892578 10.08984375 C23.59381301 14.24425689 26.25006693 18.5614354 28.5859375 23.625 C29.88825188 26.15207636 29.88825188 26.15207636 32.39453125 27.80859375 C35.87979911 30.73998096 37.38446151 33.99788756 39.3125 38.0625 C39.67150391 38.78244141 40.03050781 39.50238281 40.40039062 40.24414062 C43 45.57705357 43 45.57705357 43 49 C41.68 49 40.36 49 39 49 C39 48.34 39 47.68 39 47 C38.01 46.67 37.02 46.34 36 46 C36 44.02 36 42.04 36 40 C35.01 39.67 34.02 39.34 33 39 C32.67 38.34 32.34 37.68 32 37 C30.88625 36.525625 29.7725 36.05125 28.625 35.5625 C23.9905942 33.56491129 23.9905942 33.56491129 22 31 C20.97265625 28.07421875 20.97265625 28.07421875 20.0625 24.6875 C16.67426485 13.22841259 9.73465632 7.32752661 0 1 C0 0.67 0 0.34 0 0 Z " fill="#000000" transform="translate(306,200)"/>
<path d="M0 0 C2.2477975 2.05233685 3.0022242 3.00667261 4 6 C4.7734375 6.7115625 4.7734375 6.7115625 5.5625 7.4375 C7 9 7 9 7 13 C5.1875 12.875 5.1875 12.875 3 12 C1.10155548 8.8359258 -0.47441138 5.67912034 -1 2 C-0.67 1.34 -0.34 0.68 0 0 Z " fill="#000000" transform="translate(365,201)"/>
<path d="M0 0 C-0.66 1.98 -1.32 3.96 -2 6 C-2.804375 6.12375 -3.60875 6.2475 -4.4375 6.375 C-5.7059375 6.684375 -5.7059375 6.684375 -7 7 C-7.33 7.66 -7.66 8.32 -8 9 C-9.32 9 -10.64 9 -12 9 C-10.50521886 5.19510255 -8.30557786 3.33809165 -5 1 C-2 0 -2 0 0 0 Z " fill="#000000" transform="translate(165,204)"/>
<path d="M0 0 C0.66 0.33 1.32 0.66 2 1 C1.57589844 1.40089844 1.15179688 1.80179688 0.71484375 2.21484375 C-6.23315515 8.94905807 -11.9459686 15.05337361 -14.3203125 24.609375 C-14.98421881 26.94449373 -15.85660633 28.71758982 -17.0625 30.8125 C-19.46236539 35.30079787 -19.96473411 39.94909331 -20.60546875 44.94921875 C-20.95723397 47.66930429 -21.42796843 50.31891289 -22 53 C-22.66 53 -23.32 53 -24 53 C-23.7089809 60.50658097 -23.7089809 60.50658097 -21 67 C-20.75726677 69.54869892 -20.61633133 72.09604532 -20.4765625 74.65234375 C-20.21265473 77.36744646 -20.21265473 77.36744646 -17 79 C-17 79.99 -17 80.98 -17 82 C-18.65 81.67 -20.3 81.34 -22 81 C-22.66666667 79 -23.33333333 77 -24 75 C-24.24758057 74.36747314 -24.49516113 73.73494629 -24.75024414 73.08325195 C-30.26054891 58.37596571 -28.26383794 41.36415729 -22.0703125 27.2265625 C-19.18298422 21.15245896 -15.87770318 15.49958752 -12 10 C-11.32130859 9.01773438 -11.32130859 9.01773438 -10.62890625 8.015625 C-7.67919671 4.10846875 -4.35635166 2.05488286 0 0 Z " fill="#000000" transform="translate(150,214)"/>
<path d="M0 0 C0.8353125 0.37125 0.8353125 0.37125 1.6875 0.75 C1.5 3.125 1.5 3.125 0.6875 5.75 C-2.65407247 7.69925061 -5.49365446 7.96821974 -9.3125 7.75 C-7.69865111 3.642021 -4.79776509 -0.51867731 0 0 Z " fill="#000000" transform="translate(154.3125,222.25)"/>
<path d="M0 0 C0.66 0 1.32 0 2 0 C2.66 2.97 3.32 5.94 4 9 C2.35 9 0.7 9 -1 9 C-1.09765625 2.84765625 -1.09765625 2.84765625 -1 1 C-0.67 0.67 -0.34 0.34 0 0 Z " fill="#000000" transform="translate(341,249)"/>
<path d="M0 0 C1.625 1.6875 1.625 1.6875 3 4 C2.09021715 7.82108796 1.32708333 8.78194445 -2 11 C-2 11.99 -2 12.98 -2 14 C-2.99 14.33 -3.98 14.66 -5 15 C-5.144375 16.093125 -5.28875 17.18625 -5.4375 18.3125 C-6 22 -6 22 -7 25 C-9.64490741 26.80967349 -11.95417113 27.98472371 -15 29 C-13.38583787 23.40059013 -10.78970307 18.49096536 -8.0625 13.375 C-7.61970703 12.529375 -7.17691406 11.68375 -6.72070312 10.8125 C-4.69164399 6.97815278 -2.67545766 3.42818729 0 0 Z " fill="#000000" transform="translate(163,258)"/>
<path d="M0 0 C2.35694954 0.09031574 4.71153582 0.24688128 7.0625 0.4375 C8.35285156 0.53933594 9.64320312 0.64117187 10.97265625 0.74609375 C12.47119141 0.87177734 12.47119141 0.87177734 14 1 C14 1.33 14 1.66 14 2 C9.59085217 3.10228696 5.51617599 3.07654536 1 3 C0.67 3.66 0.34 4.32 0 5 C-0.5625 3.0625 -0.5625 3.0625 -1 1 C-0.67 0.67 -0.34 0.34 0 0 Z " fill="#000000" transform="translate(98,260)"/>
<path d="M0 0 C4.45494159 0.75987298 8.44687723 2.3656562 12.55078125 4.22265625 C15.03536788 5.29457015 15.03536788 5.29457015 18.8125 5.0625 C18.8125 6.0525 18.8125 7.0425 18.8125 8.0625 C14.22666873 7.62575416 9.84335148 7.12506707 5.375 6 C0.5059601 4.83865656 -4.20750802 4.87536043 -9.1875 5.0625 C-6.41943828 1.40151515 -4.60263522 -0.39171364 0 0 Z " fill="#000000" transform="translate(369.1875,263.9375)"/>
<path d="M0 0 C0.33 0.66 0.66 1.32 1 2 C-0.17633324 4.64972033 -1.40817981 7.18583676 -2.75 9.75 C-3.1109375 10.45382812 -3.471875 11.15765625 -3.84375 11.8828125 C-4.55494203 13.26912161 -5.26907375 14.65392709 -5.98632812 16.03710938 C-7.35035348 18.67843016 -8.67727495 21.33780654 -10 24 C-10.33 24 -10.66 24 -11 24 C-11.1345271 15.31339326 -8.05492205 8.97535096 -3 2 C-2.01 1.34 -1.02 0.68 0 0 Z " fill="#000000" transform="translate(167,269)"/>
<path d="M0 0 C0.061875 0.61875 0.12375 1.2375 0.1875 1.875 C0.828919 4.27761141 0.828919 4.27761141 3.5625 5.25 C4.366875 5.4975 5.17125 5.745 6 6 C5.67 6.99 5.34 7.98 5 9 C5 8.34 5 7.68 5 7 C3.02 7 1.04 7 -1 7 C-0.67 4.69 -0.34 2.38 0 0 Z " fill="#000000" transform="translate(82,284)"/>
<path d="M0 0 C0.763125 0.309375 1.52625 0.61875 2.3125 0.9375 C6.56985686 2.79837891 6.56985686 2.79837891 11 2 C9.67402719 9.4736649 6.41170797 13.01829468 0.46728516 17.39013672 C-7.85153649 23.19847721 -16.94532376 28.17187705 -27 30 C-30.30794013 30.62616968 -33.52817414 31.38166681 -36.765625 32.3046875 C-37.65636719 32.55863281 -38.54710937 32.81257813 -39.46484375 33.07421875 C-40.84349609 33.47060547 -40.84349609 33.47060547 -42.25 33.875 C-43.15363281 34.13152344 -44.05726563 34.38804687 -44.98828125 34.65234375 C-50.04375616 36.09988261 -55.04704227 37.64128309 -60.01855469 39.35595703 C-63.43262327 40.46565552 -66.56190506 41.12616615 -70.15234375 41.28125 C-71.31733398 41.33732422 -71.31733398 41.33732422 -72.50585938 41.39453125 C-73.70952148 41.44673828 -73.70952148 41.44673828 -74.9375 41.5 C-80.72344233 41.68802852 -80.72344233 41.68802852 -86.43359375 42.5234375 C-90.63757338 43.30408516 -94.85948433 43.14674944 -99.125 43.125 C-100.06915771 43.12161621 -101.01331543 43.11823242 -101.98608398 43.11474609 C-108.37349107 43.06736259 -114.6648215 42.86755629 -121 42 C-121.93328125 41.88914062 -122.8665625 41.77828125 -123.828125 41.6640625 C-134.53416868 40.17866901 -145.74427463 37.27290092 -154 30 C-154 29.34 -154 28.68 -154 28 C-153.25234375 28.09539062 -152.5046875 28.19078125 -151.734375 28.2890625 C-150.25710937 28.45535156 -150.25710937 28.45535156 -148.75 28.625 C-147.77546875 28.74101562 -146.8009375 28.85703125 -145.796875 28.9765625 C-143.0140609 29.21515774 -143.0140609 29.21515774 -140.85546875 27.90625 C-140.24316406 27.6071875 -139.63085938 27.308125 -139 27 C-137.22301944 27.96926212 -135.44792423 28.9476219 -133.73828125 30.03125 C-131.36084918 31.35620091 -129.66349445 31.44391574 -127 31 C-126.01 30.34 -125.02 29.68 -124 29 C-120.56596025 29.31218543 -117.69638341 30.10653214 -114.4375 31.25 C-111.04323293 32.4132347 -111.04323293 32.4132347 -108.66015625 30.51171875 C-105.32712437 28.61761693 -103.73166272 28.95800872 -100 29.5625 C-95.29864523 30.28630939 -95.29864523 30.28630939 -91.3125 28 C-90.1678125 27.01 -90.1678125 27.01 -89 26 C-83.56197403 25.67694895 -78.11706641 27.3706113 -72.9453125 28.890625 C-70.89485113 29.23336729 -70.89485113 29.23336729 -69.41796875 27.6171875 C-68.71607422 26.81667969 -68.71607422 26.81667969 -68 26 C-64.04932916 24.41973166 -60.19348919 23.63813966 -56 23 C-52.41919128 22.41523083 -50.76910487 21.06333796 -48.125 18.625 C-38.75436262 11.1529885 -25.51809194 11.46782166 -14 11 C-13.690625 10.030625 -13.38125 9.06125 -13.0625 8.0625 C-12 5 -12 5 -11 4 C-9.72125 3.87625 -8.4425 3.7525 -7.125 3.625 C-4.33279049 3.31975846 -3.25707001 3.20083594 -1 1.4375 C-0.67 0.963125 -0.34 0.48875 0 0 Z " fill="#000000" transform="translate(323,290)"/>
<path d="M0 0 C0.99 0.33 1.98 0.66 3 1 C7.77553612 40.05842411 7.77553612 40.05842411 7 56 C6.67 56 6.34 56 6 56 C5.67 53.69 5.34 51.38 5 49 C3.02 48.67 1.04 48.34 -1 48 C-1.33 48.66 -1.66 49.32 -2 50 C-2 49.01 -2 48.02 -2 47 C0.70879335 45.64560332 3.00933268 45.93498549 6 46 C5.85054932 45.48501953 5.70109863 44.97003906 5.54711914 44.43945312 C4.84161489 41.29380456 4.55475676 38.17801945 4.24609375 34.96875 C4.14833397 33.95935364 4.14833397 33.95935364 4.04859924 32.92956543 C3.91188592 31.51096297 3.77665731 30.09221674 3.64282227 28.67333984 C3.43817152 26.50710807 3.22824392 24.34143545 3.01757812 22.17578125 C2 11.56423568 2 11.56423568 2 7 C1.34 7 0.68 7 0 7 C-0.33 7.99 -0.66 8.98 -1 10 C-1.66 9.67 -2.32 9.34 -3 9 C-2.67 8.01 -2.34 7.02 -2 6 C0.0625 5.3125 0.0625 5.3125 2 5 C2 4.34 2 3.68 2 3 C1.34 3 0.68 3 0 3 C0 2.01 0 1.02 0 0 Z " fill="#000000" transform="translate(365,298)"/>
<path d="M0 0 C6.71700347 -0.31985731 11.75726932 0.5206176 18 3 C17.67 4.32 17.34 5.64 17 7 C16.67 6.34 16.34 5.68 16 5 C13.87918135 4.60525925 13.87918135 4.60525925 11.375 4.5 C6.98091405 4.1527662 3.18255749 3.36387744 -1 2 C-0.67 1.34 -0.34 0.68 0 0 Z " fill="#000000" transform="translate(343,304)"/>
<path d="M0 0 C10.55808656 1.92710706 10.55808656 1.92710706 15 4 C15 4.33 15 4.66 15 5 C9.17728663 5.59720137 5.0790596 3.528243 0 1 C0 0.67 0 0.34 0 0 Z " fill="#000000" transform="translate(276,338)"/>
<path d="M0 0 C0.33 0 0.66 0 1 0 C1 2.31 1 4.62 1 7 C0.67 6.01 0.34 5.02 0 4 C-2.97 3.67 -5.94 3.34 -9 3 C-9 4.98 -9 6.96 -9 9 C-9.33 9 -9.66 9 -10 9 C-10 6.36 -10 3.72 -10 1 C-3.375 0.875 -3.375 0.875 0 2 C0 1.34 0 0.68 0 0 Z " fill="#000000" transform="translate(297,375)"/>
</svg>
