<svg id="Capa_1" data-name="Capa 1" xmlns="http://www.w3.org/2000/svg" viewBox="0 0 800 488.96"><defs><style>.cls-1{fill:#46424a;}</style></defs><path class="cls-1" d="M360.15,428.09A114.46,114.46,0,1,1,474.61,313.63,114.6,114.6,0,0,1,360.15,428.09Zm0-198.66a84.17,84.17,0,1,0,84.16,84.17A84.27,84.27,0,0,0,360.15,229.43Z"/><path class="cls-1" d="M158.82,119.29a36.14,36.14,0,0,0-28.63-58.24H70.24V83.66h60a13.56,13.56,0,0,1,1.3,27.06H106.37A36.21,36.21,0,0,0,70.2,146.88V183h65.28a36.14,36.14,0,0,0,23.34-63.75Zm-23.34,41H92.94V146.88a13.44,13.44,0,0,1,13.43-13.43h29.11a13.43,13.43,0,0,1,0,26.85Z"/><path class="cls-1" d="M185.21,122c0,33.71,27.77,61.13,61.91,61.13h32V160.21h-32a39,39,0,0,1-37.05-26.35h47.78V110.93h-48a39,39,0,0,1,37.3-27.11h32V60.89h-32C213,60.89,185.21,88.31,185.21,122Z"/><polygon class="cls-1" points="295.49 83.82 334.73 83.82 334.73 183.34 357.66 183.34 357.66 83.82 396.91 83.82 396.91 60.89 295.49 60.89 295.49 83.82"/><polygon class="cls-1" points="489.09 110.93 435.15 110.93 435.15 60.87 412.22 60.87 412.22 183.34 435.15 183.34 435.15 133.86 489.09 133.86 489.09 183.34 512.02 183.34 512.02 60.87 489.09 60.87 489.09 110.93"/><path class="cls-1" d="M527.33,122c0,33.71,27.78,61.13,61.92,61.13h32V160.21h-32a39,39,0,0,1-37.06-26.35H600V110.93h-48a39,39,0,0,1,37.31-27.11h32V60.89h-32C555.11,60.89,527.33,88.31,527.33,122Z"/><path class="cls-1" d="M180,397.75h-35.5a84.31,84.31,0,0,1-84.3-85.43c.59-45.87,38.87-83.19,85.33-83.19h60V260h-60c-29.64,0-54,23.64-54.43,52.69a53.4,53.4,0,0,0,53.4,54.12H180a19,19,0,1,0,0-37.95H143.61V298H180a49.89,49.89,0,1,1,0,99.77Z"/><path class="cls-1" d="M708.06,127.45a36.15,36.15,0,0,0-19.81-66.4h-53V83.66h53a13.56,13.56,0,0,1,0,27.12h-4a30.21,30.21,0,0,0-3.69-.23h-7.3a37.28,37.28,0,0,0-37.24,37.23V183.2H659V147.78a14.32,14.32,0,0,1,14.31-14.3h7.3a7.73,7.73,0,0,1,6.59,3.72l24.33,46.14h26.65Z"/><path class="cls-1" d="M654.86,397.41h-40V367.5h40c30.33,0,55-24.18,55-53.9s-24.67-53.91-55-53.91h-40V229.78h40c46.82,0,84.91,37.6,84.91,83.82S701.68,397.41,654.86,397.41Z"/><path class="cls-1" d="M592.19,397.41H545A47.48,47.48,0,0,1,497.57,350V230.16h29.91V350c0,9.65,7.86,17.51,9.86,17.51h54.85Z"/><path class="cls-1" d="M398.42,282.66a38.28,38.28,0,1,0-45.75,37.53v62.62h14.95V320.19A38.27,38.27,0,0,0,398.42,282.66Z"/></svg>