<svg id="Capa_1" data-name="Capa 1" xmlns="http://www.w3.org/2000/svg" viewBox="0 0 1315.52 263.52"><defs><style>.cls-1{fill:#fac600;}</style></defs><path class="cls-1" d="M135.42,128.72a36.65,36.65,0,0,0-29-59.06H45.6V92.58h60.79A13.75,13.75,0,0,1,107.71,120H82.23a36.71,36.71,0,0,0-36.67,36.67v36.67h66.19a36.64,36.64,0,0,0,23.67-64.64Zm-23.67,41.59H68.61V156.69a13.63,13.63,0,0,1,13.62-13.61h29.52a13.62,13.62,0,0,1,0,27.23Z"/><path class="cls-1" d="M162.18,131.48c0,34.18,28.17,62,62.79,62h32.45V170.21H225a39.52,39.52,0,0,1-37.58-26.71h48.46V120.24H187.14A39.5,39.5,0,0,1,225,92.75h32.45V69.49H225C190.35,69.49,162.18,97.3,162.18,131.48Z"/><polygon class="cls-1" points="274.02 92.75 313.81 92.75 313.81 193.67 337.06 193.67 337.06 92.75 376.86 92.75 376.86 69.49 274.02 69.49 274.02 92.75"/><polygon class="cls-1" points="470.34 120.24 415.64 120.24 415.64 69.48 392.38 69.48 392.38 193.67 415.64 193.67 415.64 143.5 470.34 143.5 470.34 193.67 493.6 193.67 493.6 69.48 470.34 69.48 470.34 120.24"/><path class="cls-1" d="M509.12,131.48c0,34.18,28.17,62,62.79,62h32.45V170.21H571.91a39.53,39.53,0,0,1-37.58-26.71h48.46V120.24H534.08a39.51,39.51,0,0,1,37.83-27.49h32.45V69.49H571.91C537.29,69.49,509.12,97.3,509.12,131.48Z"/><path class="cls-1" d="M857.76,193.9H831.6A62.11,62.11,0,0,1,769.49,131c.44-33.8,28.64-61.3,62.87-61.3h44.2V92.43h-44.2c-21.83,0-39.82,17.42-40.1,38.82a39.35,39.35,0,0,0,39.34,39.88h26.16a14,14,0,0,0,0-28H830.92V120.39h26.84a36.76,36.76,0,1,1,0,73.51Z"/><path class="cls-1" d="M692.39,137A36.66,36.66,0,0,0,672.3,69.66H618.59V92.58H672.3a13.76,13.76,0,0,1,0,27.51h-4a31.2,31.2,0,0,0-3.75-.24h-7.4a37.8,37.8,0,0,0-37.76,37.76v35.91h23.25V157.61a14.52,14.52,0,0,1,14.51-14.5h7.4a7.84,7.84,0,0,1,6.69,3.77l24.67,46.79h27Z"/><path class="cls-1" d="M1207.17,193.63h-29.6V171.51h29.6c22.43,0,40.67-17.88,40.67-39.86s-18.24-39.87-40.67-39.87h-29.6V69.66h29.6c34.62,0,62.8,27.81,62.8,62S1241.79,193.63,1207.17,193.63Z"/><path class="cls-1" d="M1162.05,193.63h-34.91a35.11,35.11,0,0,1-35.07-35.07V69.94h22.12v88.62c0,7.14,5.81,12.95,7.29,12.95h40.57Z"/><path class="cls-1" d="M991.35,217a85.2,85.2,0,1,1,85.2-85.19A85.29,85.29,0,0,1,991.35,217Zm0-147.86A62.65,62.65,0,1,0,1054,131.74,62.71,62.71,0,0,0,991.35,69.1Z"/><path class="cls-1" d="M1019.84,108.71a28.49,28.49,0,1,0-34.05,27.94v46.61h11.13V136.65A28.5,28.5,0,0,0,1019.84,108.71Z"/></svg>