<svg id="Capa_1" data-name="Capa 1" xmlns="http://www.w3.org/2000/svg" xmlns:xlink="http://www.w3.org/1999/xlink" viewBox="0 0 1315.52 263.52"><defs><style>.cls-1{fill:#46424a;}.cls-2{fill:url(#Degradado_sin_nombre_5);}.cls-3{fill:url(#Degradado_sin_nombre_5-2);}</style><linearGradient id="Degradado_sin_nombre_5" x1="947.25" y1="205.53" x2="1032.43" y2="58" gradientUnits="userSpaceOnUse"><stop offset="0" stop-color="#c69214"/><stop offset="1" stop-color="#fac600"/></linearGradient><linearGradient id="Degradado_sin_nombre_5-2" x1="962.06" y1="170.43" x2="1009.97" y2="87.44" xlink:href="#Degradado_sin_nombre_5"/></defs><path class="cls-1" d="M133.9,128.72a36.65,36.65,0,0,0-29-59.06H44.09V92.58h60.79A13.75,13.75,0,0,1,106.19,120H80.72a36.71,36.71,0,0,0-36.67,36.67v36.67h66.19a36.64,36.64,0,0,0,23.66-64.64Zm-23.66,41.59H67.1V156.69a13.63,13.63,0,0,1,13.62-13.61h29.52a13.62,13.62,0,0,1,0,27.23Z"/><path class="cls-1" d="M160.67,131.48c0,34.18,28.16,62,62.78,62H255.9V170.21H223.45a39.52,39.52,0,0,1-37.57-26.71h48.46V120.24H185.62a39.51,39.51,0,0,1,37.83-27.49H255.9V69.49H223.45C188.83,69.49,160.67,97.3,160.67,131.48Z"/><polygon class="cls-1" points="272.5 92.75 312.3 92.75 312.3 193.67 335.55 193.67 335.55 92.75 375.35 92.75 375.35 69.49 272.5 69.49 272.5 92.75"/><polygon class="cls-1" points="468.83 120.24 414.13 120.24 414.13 69.48 390.87 69.48 390.87 193.67 414.13 193.67 414.13 143.5 468.83 143.5 468.83 193.67 492.08 193.67 492.08 69.48 468.83 69.48 468.83 120.24"/><path class="cls-1" d="M507.61,131.48c0,34.18,28.16,62,62.79,62h32.45V170.21H570.4a39.52,39.52,0,0,1-37.58-26.71h48.46V120.24H532.56A39.51,39.51,0,0,1,570.4,92.75h32.45V69.49H570.4C535.77,69.49,507.61,97.3,507.61,131.48Z"/><path class="cls-1" d="M856.25,193.9H830.09A62.11,62.11,0,0,1,768,131c.44-33.8,28.64-61.3,62.87-61.3h44.2V92.43h-44.2c-21.84,0-39.83,17.42-40.1,38.82a39.35,39.35,0,0,0,39.34,39.88h26.16a14,14,0,0,0,0-28H829.41V120.39h26.84a36.76,36.76,0,0,1,0,73.51Z"/><path class="cls-1" d="M690.88,137a36.67,36.67,0,0,0-20.09-67.34H617.08V92.58h53.71a13.76,13.76,0,0,1,0,27.51h-4a31.2,31.2,0,0,0-3.75-.24h-7.4a37.8,37.8,0,0,0-37.76,37.76v35.91h23.25V157.61a14.52,14.52,0,0,1,14.51-14.5H663a7.85,7.85,0,0,1,6.69,3.77l24.67,46.79h27Z"/><path class="cls-1" d="M1205.65,193.63h-29.59V171.51h29.59c22.43,0,40.68-17.88,40.68-39.86s-18.25-39.87-40.68-39.87h-29.59V69.66h29.59c34.63,0,62.8,27.81,62.8,62S1240.28,193.63,1205.65,193.63Z"/><path class="cls-1" d="M1160.53,193.63h-34.9a35.11,35.11,0,0,1-35.07-35.07V69.94h22.12v88.62c0,7.14,5.81,12.95,7.29,12.95h40.56Z"/><path class="cls-2" d="M989.84,217A85.2,85.2,0,1,1,1075,131.77,85.29,85.29,0,0,1,989.84,217Zm0-147.86a62.65,62.65,0,1,0,62.64,62.64A62.71,62.71,0,0,0,989.84,69.1Z"/><path class="cls-3" d="M1018.32,108.71a28.49,28.49,0,1,0-34.05,27.94v46.61H995.4V136.65A28.49,28.49,0,0,0,1018.32,108.71Z"/></svg>