<svg id="Capa_1" data-name="Capa 1" xmlns="http://www.w3.org/2000/svg" xmlns:xlink="http://www.w3.org/1999/xlink" viewBox="0 0 375.84 375.84"><defs><style>.cls-1{fill:url(#Degradado_sin_nombre_5);}.cls-2{fill:url(#Degradado_sin_nombre_5-2);}</style><linearGradient id="Degradado_sin_nombre_5" x1="120.88" y1="304.04" x2="254.96" y2="71.81" gradientUnits="userSpaceOnUse"><stop offset="0" stop-color="#c69214"/><stop offset="1" stop-color="#fac600"/></linearGradient><linearGradient id="Degradado_sin_nombre_5-2" x1="144.19" y1="248.78" x2="219.62" y2="118.15" xlink:href="#Degradado_sin_nombre_5"/></defs><path class="cls-1" d="M187.92,322c-73.94,0-134.1-60.15-134.1-134.1S114,53.82,187.92,53.82,322,114,322,187.92,261.87,322,187.92,322Zm0-232.74a98.61,98.61,0,1,0,98.61,98.6A98.71,98.71,0,0,0,187.92,89.28Z"/><path class="cls-2" d="M232.76,151.64a44.84,44.84,0,1,0-53.6,44V269h17.52V195.61A44.84,44.84,0,0,0,232.76,151.64Z"/></svg>